<?xml version="1.0" encoding="UTF-8" standalone="no"?>
<svg
   xmlns:svg="http://www.w3.org/2000/svg"
   xmlns="http://www.w3.org/2000/svg"
   width="800.0"
   height="240.0"

>
    <g transform="scale(2.3595649272237673, -2.3595649272237673)   translate(148.08729052505305,-6.23274761276479)" stroke-width="0.35"  fill="none">
       <!-- hidden lines -->
       <g  stroke="rgb(160,160,160)" fill="none" stroke-dasharray="0.35,0.35" >

       </g>

       <!-- solid lines -->
       <g  stroke="rgb(0,0,0)" fill="none">
			<path d="M7.778174593052024,-17.755920907481183 L60.10407640085655,-43.51941398892446 " />
			<path d="M60.10407640085654,-41.604559773411786 L59.326258941551345,-41.22158893030925 " />
			<path d="M59.326258941551345,-37.7400358111953 L59.326258941551345,-41.22158893030925 " />
			<path d="M60.10407640085654,-38.12300665429783 L59.326258941551345,-37.7400358111953 " />
			<path d="M7.778174593052023,-3.829708431025353 L60.10407640085655,-29.593201512468635 " />
			<path d="M60.10407640085654,-43.51941398892447 L60.29261972027065,-43.6145531752848 L60.47636418670908,-43.71194192651358 L60.65519911937585,-43.811521579268664 L60.829016794794626,-43.913232150490764 L60.99771251169719,-44.01701237353497 L61.16118465409161,-44.12279973507552 L61.31933475247194,-44.230530512761455 L61.47206754313252,-44.34013981360062 L61.6192910255513,-44.451561613048746 L61.760916517807516,-44.56472879478017 L61.896858710000345,-44.67957319111622 L62.02703571563642,-44.79602562408684 L62.15136912095519,-44.91401594710084 L62.26978403216239,-45.0334730871996 L62.38220912054335,-45.1543250878687 L62.488576665428674,-45.27649915238189 L62.588822594986645,-45.39992168765108 L62.68288652481775,-45.5245183485561 L62.77071179432792,-45.65021408272739 L62.852245500858814,-45.77693317575474 L62.92743853155436,-45.90459929679486 L62.996245592944504,-46.03313554455017 L63.05862523822833,-46.1624644935913 L63.11453989224005,-46.29250824099527 L63.16395587408287,-46.423188453271294 L63.20684341741711,-46.55442641354595 L63.24317668839033,-46.686143068979256 L63.27293380119869,-46.81825907838319 L63.29609683127011,-46.95069486001383 L63.31265182606142,-47.08337063950841 L63.322588813462765,-47.21620649793843 L63.32590180780452,-47.34912241994977 " />
			<path d="M63.32590180780452,-47.34912241994982 L63.322588813462765,-47.482038341961214 L63.31265182606142,-47.614874200391235 L63.29609683127011,-47.74754997988581 L63.27293380119869,-47.87998576151645 L63.24317668839033,-48.01210177092039 L63.20684341741711,-48.1438184263537 L63.16395587408287,-48.27505638662835 L63.11453989224005,-48.40573659890437 L63.05862523822833,-48.53578034630834 L62.996245592944504,-48.66510929534947 L62.92743853155436,-48.79364554310477 L62.852245500858814,-48.921311664144895 L62.77071179432792,-49.04803075717225 L62.68288652481775,-49.17372649134354 L62.58882259498665,-49.29832315224856 L62.488576665428674,-49.421745687517756 L62.38220912054336,-49.54391975203094 L62.2697840321624,-49.66477175270004 L62.15136912095519,-49.784228892798794 L62.02703571563643,-49.902219215812806 L61.896858710000345,-50.018671648783425 L61.760916517807516,-50.13351604511947 L61.6192910255513,-50.2466832268509 L61.47206754313252,-50.35810502629902 L61.31933475247194,-50.46771432713819 L61.16118465409161,-50.57544510482413 L60.99771251169719,-50.681232466364676 L60.829016794794626,-50.78501268940888 L60.65519911937585,-50.88672326063098 L60.47636418670907,-50.98630291338606 L60.29261972027066,-51.08369166461485 L60.104076400856556,-51.178830850975174 " />
			<path d="M60.10407640085655,-51.178830850975174 L29.769195487953652,-66.11469373197406 " />
			<path d="M28.70853531617384,-65.59246076410696 L29.769195487953656,-66.11469373197404 " />
			<path d="M28.70853531617382,-65.59246076410696 L59.04341622907671,-50.65659788310808 " />
			<path d="M59.04341622907672,-50.656597883108084 L59.206249095843454,-50.574432222160524 L59.36493749867663,-50.49032375519022 L59.51938584961612,-50.40432314599264 L59.669501114750524,-50.31648219811901 L59.81519287025728,-50.22685382367174 L59.95637335687065,-50.13549201143218 L60.09295753274456,-50.042451794339776 L60.2248631246787,-49.947789216342315 L60.35201067767674,-49.851561298637115 L60.474323602807104,-49.75382600532361 L60.59172822333728,-49.654642208487935 L60.70415381911389,-49.55406965274058 L60.81153266916191,-49.452168919228484 L60.91380009247723,-49.3490013891432 L61.01089448698806,-49.244629206747156 L61.10275736666175,-49.13911524194031 L61.18933339673454,-49.03252305238964 L61.27057042704322,-48.9249168452444 L61.34641952343837,-48.8163614384601 L61.4168349972605,-48.70692222175466 L61.4817744328612,-48.59666511722001 L61.54119871315269,-48.48565653961315 L61.59507204317054,-48.37396335635036 L61.64336197163521,-48.26165284722875 L61.68603941049946,-48.14879266389946 L61.72307865246994,-48.03545078911681 L61.75445738649226,-47.92169549578804 L61.780156711190386,-47.807595305848274 L61.80016114625208,-47.69321894898545 L61.81445864175366,-47.57863532124013 L61.82304058541846,-47.46391344350511 L61.82590180780452,-47.34912241994984 " />
			<path d="M61.82590180780452,-47.34912241994982 L61.82304058541846,-47.23433139639453 L61.81445864175366,-47.119609518659516 L61.80016114625208,-47.0050258909142 L61.78015671119039,-46.89064953405137 L61.75445738649226,-46.7765493441116 L61.72307865246994,-46.662794050782836 L61.68603941049946,-46.54945217600019 L61.64336197163521,-46.43659199267089 L61.59507204317054,-46.324281483549285 L61.54119871315269,-46.21258830028649 L61.4817744328612,-46.10157972267964 L61.41683499726051,-45.99132261814499 L61.34641952343837,-45.881883401439545 L61.27057042704322,-45.77332799465525 L61.18933339673454,-45.66572178751001 L61.10275736666175,-45.559129597959334 L61.010894486988065,-45.45361563315249 L60.91380009247723,-45.34924345075645 L60.81153266916191,-45.24607592067116 L60.70415381911389,-45.144175187159064 L60.59172822333728,-45.04360263141171 L60.474323602807104,-44.944418834576034 L60.35201067767674,-44.846683541262536 L60.224863124678706,-44.750455623557336 L60.09295753274457,-44.65579304555987 L59.95637335687065,-44.56275282846747 L59.815192870257285,-44.471391016227905 L59.669501114750524,-44.38176264178063 L59.51938584961612,-44.293921693907 L59.36493749867663,-44.207921084709426 L59.206249095843454,-44.12381261773912 L59.043416229076755,-44.04164695679158 " />
			<path d="M6.7175144212722016,-18.278153875348277 L59.04341622907672,-44.04164695679155 " />
			<path d="M6.717514421272203,-18.278153875348277 L6.550635175002137,-18.19798051394525 L6.379810071046674,-18.119847745521792 L6.205142008060876,-18.043802634336025 L6.026736199554629,-17.969890987119424 L5.844700110515952,-17.89815732548453 L5.659143392678115,-17.82864485910682 L5.47017781846953,-17.761395459696807 L5.277917213686221,-17.69644963577807 L5.082477388927424,-17.63384650828646 L4.883976069835607,-17.5736237870051 L4.68253282618295,-17.51581774784941 L4.47826899984698,-17.460463211015878 L4.2713076317187655,-17.40759352000765 L4.061773387587683,-17.357240521549663 L3.8497924830474086,-17.30943454640537 L3.635492607468358,-17.264204391106613 L3.4190028470823934,-17.221577300607688 L3.2004536072260974,-17.181578951873973 L2.979976533789477,-17.144233438415114 L2.757704433917401,-17.109563255771985 L2.533771196011544,-17.0775892879662 L2.3083117090810172,-17.04833079492039 L2.081461781490266,-17.02180540085671 L1.8533580591532226,-16.998029083680706 L1.6241379432228662,-16.977016165356787 L1.393939507325934,-16.958779303281222 L1.1629014143925518,-16.943329482657816 L0.9311628331308244,-16.9306760098808 L0.69886335419684,-16.92082650692903 L0.46614290611047143,-16.91378690677479 L0.23314167096766783,-16.909561449809985 L1.911076074858937e-15,-16.90815268129189 L-0.23314167096766406,-16.909561449809985 L-0.4661429061104676,-16.91378690677479 L-0.6988633541968362,-16.92082650692903 L-0.9311628331308207,-16.9306760098808 L-1.162901414392548,-16.943329482657816 L-1.39393950732593,-16.958779303281222 L-1.6241379432228624,-16.977016165356783 L-1.8533580591532186,-16.998029083680706 L-2.0814617814902627,-17.02180540085671 L-2.3083117090810137,-17.04833079492039 L-2.533771196011541,-17.0775892879662 L-2.757704433917398,-17.109563255771985 L-2.9799765337894737,-17.144233438415114 L-3.2004536072260943,-17.181578951873973 L-3.4190028470823903,-17.221577300607684 L-3.635492607468355,-17.264204391106613 L-3.849792483047405,-17.30943454640537 L-4.061773387587681,-17.357240521549663 L-4.271307631718763,-17.40759352000765 L-4.478268999846977,-17.460463211015878 L-4.682532826182947,-17.51581774784941 L-4.8839760698356045,-17.573623787005097 L-5.082477388927421,-17.63384650828646 L-5.277917213686218,-17.69644963577807 L-5.470177818469526,-17.761395459696804 L-5.6591433926781125,-17.82864485910682 L-5.844700110515951,-17.89815732548453 L-6.026736199554627,-17.96989098711942 L-6.205142008060873,-18.043802634336025 L-6.379810071046668,-18.11984774552179 L-6.550635175002135,-18.19798051394525 L-6.717514421272141,-18.278153875348245 " />
			<path d="M-59.04341622907672,-44.04164695679155 L-6.7175144212722016,-18.278153875348277 " />
			<path d="M-59.04341622907672,-44.04164695679156 L-59.206249095843454,-44.12381261773912 L-59.36493749867663,-44.20792108470943 L-59.51938584961613,-44.29392169390701 L-59.669501114750524,-44.38176264178063 L-59.81519287025728,-44.471391016227905 L-59.95637335687065,-44.56275282846747 L-60.09295753274456,-44.65579304555987 L-60.2248631246787,-44.75045562355733 L-60.35201067767674,-44.84668354126253 L-60.474323602807104,-44.944418834576034 L-60.59172822333728,-45.04360263141171 L-60.70415381911389,-45.144175187159064 L-60.81153266916191,-45.24607592067116 L-60.91380009247723,-45.34924345075645 L-61.01089448698806,-45.45361563315249 L-61.10275736666174,-45.559129597959334 L-61.18933339673454,-45.66572178751 L-61.27057042704321,-45.77332799465525 L-61.346419523438364,-45.88188340143954 L-61.4168349972605,-45.991322618144984 L-61.4817744328612,-46.10157972267963 L-61.54119871315268,-46.212588300286484 L-61.59507204317054,-46.324281483549285 L-61.64336197163521,-46.43659199267089 L-61.68603941049946,-46.54945217600018 L-61.72307865246994,-46.662794050782836 L-61.75445738649226,-46.77654934411161 L-61.78015671119039,-46.89064953405137 L-61.80016114625208,-47.0050258909142 L-61.81445864175366,-47.119609518659516 L-61.82304058541846,-47.23433139639453 L-61.82590180780452,-47.34912241994978 " />
			<path d="M-61.82590180780452,-47.34912241994982 L-61.82304058541846,-47.46391344350511 L-61.81445864175366,-47.57863532124013 L-61.80016114625208,-47.69321894898545 L-61.78015671119039,-47.807595305848274 L-61.75445738649226,-47.921695495788036 L-61.72307865246994,-48.03545078911681 L-61.68603941049946,-48.14879266389946 L-61.64336197163521,-48.26165284722875 L-61.59507204317054,-48.37396335635036 L-61.54119871315269,-48.48565653961315 L-61.4817744328612,-48.59666511722001 L-61.4168349972605,-48.70692222175466 L-61.34641952343837,-48.8163614384601 L-61.27057042704322,-48.9249168452444 L-61.18933339673454,-49.03252305238964 L-61.10275736666175,-49.13911524194031 L-61.010894486988065,-49.24462920674715 L-60.91380009247723,-49.34900138914319 L-60.81153266916191,-49.452168919228484 L-60.70415381911389,-49.55406965274058 L-60.59172822333728,-49.654642208487935 L-60.474323602807104,-49.75382600532361 L-60.35201067767674,-49.851561298637115 L-60.2248631246787,-49.947789216342315 L-60.09295753274456,-50.042451794339776 L-59.95637335687065,-50.13549201143218 L-59.81519287025728,-50.22685382367174 L-59.669501114750524,-50.31648219811901 L-59.51938584961612,-50.40432314599264 L-59.36493749867663,-50.49032375519021 L-59.206249095843454,-50.574432222160524 L-59.043416229076726,-50.65659788310808 " />
			<path d="M-59.043416229076726,-50.65659788310808 L-6.717514421272211,-76.42009096455136 " />
			<path d="M-6.717514421272203,-76.42009096455135 L-6.550635175002138,-76.50026432595438 L-6.379810071046676,-76.57839709437783 L-6.205142008060882,-76.6544422055636 L-6.026736199554634,-76.7283538527802 L-5.844700110515957,-76.8000875144151 L-5.65914339267812,-76.86959998079281 L-5.470177818469533,-76.93684938020283 L-5.277917213686224,-77.00179520412156 L-5.082477388927424,-77.06439833161316 L-4.883976069835607,-77.12462105289453 L-4.682532826182951,-77.18242709205022 L-4.478268999846981,-77.23778162888375 L-4.271307631718766,-77.29065131989198 L-4.0617733875876825,-77.34100431834997 L-3.8497924830474055,-77.38881029349426 L-3.6354926074683553,-77.43404044879301 L-3.4190028470823903,-77.47666753929194 L-3.200453607226092,-77.51666588802566 L-2.9799765337894697,-77.55401140148452 L-2.757704433917394,-77.58868158412764 L-2.5337711960115366,-77.62065555193342 L-2.3083117090810097,-77.64991404497924 L-2.0814617814902667,-77.67643943904292 L-1.8533580591532208,-77.70021575621892 L-1.6241379432228626,-77.72122867454284 L-1.3939395073259384,-77.73946553661841 L-1.1629014143925565,-77.75491535724181 L-0.9311628331308291,-77.76756883001883 L-0.6988633541968449,-77.7774183329706 L-0.46614290611047404,-77.78445793312484 L-0.23314167096766836,-77.78868339008964 L-2.441777146622176e-15,-77.79009215860773 L0.2331416709676635,-77.78868339008964 L0.46614290611046927,-77.78445793312484 L0.6988633541968399,-77.7774183329706 L0.9311628331308243,-77.76756883001883 L1.1629014143925518,-77.75491535724181 L1.3939395073259337,-77.73946553661841 L1.624137943222858,-77.72122867454284 L1.8533580591532162,-77.70021575621892 L2.081461781490262,-77.67643943904292 L2.308311709081005,-77.64991404497924 L2.533771196011532,-77.62065555193342 L2.7577044339173886,-77.58868158412764 L2.979976533789465,-77.55401140148452 L3.2004536072260876,-77.51666588802566 L3.419002847082386,-77.47666753929194 L3.6354926074683505,-77.43404044879301 L3.8497924830474024,-77.38881029349426 L4.06177338758768,-77.34100431834997 L4.271307631718762,-77.29065131989198 L4.478268999846977,-77.23778162888375 L4.682532826182946,-77.18242709205022 L4.883976069835604,-77.12462105289453 L5.08247738892742,-77.06439833161318 L5.277917213686217,-77.00179520412156 L5.4701778184695256,-76.93684938020283 L5.659143392678112,-76.86959998079281 L5.844700110515949,-76.8000875144151 L6.026736199554629,-76.7283538527802 L6.205142008060879,-76.6544422055636 L6.379810071046673,-76.57839709437783 L6.550635175002134,-76.50026432595438 L6.71751442127217,-76.42009096455136 " />
			<path d="M6.717514421272197,-76.42009096455136 L11.596551211459374,-74.01781931236273 " />
			<path d="M11.596551211459388,-74.01781931236273 L12.657211383239204,-74.54005228022982 " />
			<path d="M12.657211383239208,-74.54005228022983 L7.778174593052024,-76.94232393241846 " />
			<path d="M-7.778174593052025,-76.94232393241845 L-7.5849459921077385,-77.03515624562195 L-7.387148503317204,-77.12562576695437 L-7.1849012724915475,-77.21367800095895 L-6.978326125800102,-77.29925990826239 L-6.7675474963868965,-77.38231993752383 L-6.55269234941677,-77.4628080564875 L-6.333890105596301,-77.54067578212015 L-6.111272563215627,-77.61587620981553 L-5.884973818758071,-77.68836404164792 L-5.65513018612544,-77.75809561365791 L-5.421880114527627,-77.82502892215398 L-5.185364105085978,-77.88912364901385 L-4.945724626200676,-77.95034118597076 L-4.703106027733106,-78.00864465786947 L-4.45765445405489,-78.06399894487866 L-4.20951775601599,-78.11637070364563 L-3.9588454018848727,-78.16572838738124 L-3.7057883873144224,-78.21204226486238 L-3.450499144387807,-78.25528443834105 L-3.1931314497990875,-78.29542886034889 L-2.9338403322238844,-78.33245134938717 L-2.6727819789359057,-78.36632960449285 L-2.4101136417255717,-78.39704321867184 L-2.1459935421774134,-78.42457369119143 L-1.8805807763633142,-78.44890443872438 L-1.614035219008981,-78.4700208053382 L-1.346517427191381,-78.48791007132318 L-1.0781885436251701,-78.50256146085448 L-0.8092101995963463,-78.51396614848284 L-0.5397444176016013,-78.5221172644509 L-0.26995351375203674,-78.52700989883121 L-2.5038220457737473e-15,-78.52864110448374 L0.26995351375203175,-78.52700989883121 L0.5397444176015962,-78.5221172644509 L0.8092101995963412,-78.51396614848284 L1.0781885436251653,-78.50256146085448 L1.346517427191376,-78.48791007132318 L1.6140352190089762,-78.4700208053382 L1.8805807763633096,-78.44890443872438 L2.1459935421774086,-78.42457369119143 L2.4101136417255664,-78.39704321867184 L2.672781978935901,-78.36632960449285 L2.9338403322238795,-78.33245134938717 L3.193131449799082,-78.29542886034889 L3.450499144387802,-78.25528443834105 L3.7057883873144175,-78.21204226486238 L3.958845401884868,-78.16572838738124 L4.209517756015985,-78.11637070364563 L4.457654454054888,-78.06399894487866 L4.703106027733103,-78.00864465786947 L4.945724626200672,-77.95034118597076 L5.185364105085973,-77.88912364901385 L5.421880114527622,-77.82502892215398 L5.655130186125437,-77.75809561365791 L5.884973818758065,-77.68836404164792 L6.1112725632156195,-77.61587620981553 L6.333890105596293,-77.54067578212015 L6.552692349416762,-77.4628080564875 L6.7675474963868885,-77.38231993752383 L6.9783261258000975,-77.29925990826239 L7.184901272491544,-77.21367800095895 L7.387148503317201,-77.12562576695437 L7.584945992107735,-77.03515624562195 L7.778174593051986,-76.94232393241846 " />
			<path d="M-60.10407640085655,-51.178830850975174 L-7.778174593052024,-76.94232393241846 " />
			<path d="M-60.10407640085654,-51.178830850975174 L-60.29261972027066,-51.08369166461485 L-60.47636418670907,-50.98630291338607 L-60.65519911937585,-50.88672326063098 L-60.829016794794626,-50.78501268940888 L-60.99771251169719,-50.681232466364676 L-61.16118465409161,-50.57544510482413 L-61.319334752471946,-50.46771432713819 L-61.47206754313252,-50.35810502629902 L-61.6192910255513,-50.2466832268509 L-61.760916517807516,-50.13351604511947 L-61.896858710000345,-50.018671648783425 L-62.02703571563642,-49.902219215812806 L-62.15136912095519,-49.7842288927988 L-62.26978403216239,-49.66477175270004 L-62.38220912054335,-49.543919752030945 L-62.488576665428674,-49.421745687517756 L-62.58882259498665,-49.29832315224856 L-62.68288652481775,-49.17372649134354 L-62.77071179432792,-49.04803075717225 L-62.852245500858814,-48.921311664144895 L-62.92743853155436,-48.79364554310477 L-62.996245592944504,-48.66510929534947 L-63.05862523822833,-48.53578034630834 L-63.11453989224005,-48.40573659890437 L-63.16395587408287,-48.27505638662835 L-63.20684341741711,-48.143818426353704 L-63.24317668839033,-48.012101770920395 L-63.27293380119868,-47.87998576151645 L-63.29609683127011,-47.74754997988581 L-63.31265182606142,-47.61487420039123 L-63.322588813462765,-47.482038341961214 L-63.32590180780452,-47.34912241994984 " />
			<path d="M-63.32590180780452,-47.34912241994982 L-63.322588813462765,-47.21620649793843 L-63.31265182606142,-47.083370639508416 L-63.29609683127011,-46.95069486001383 L-63.27293380119869,-46.81825907838319 L-63.24317668839033,-46.686143068979256 L-63.20684341741711,-46.55442641354595 L-63.16395587408287,-46.423188453271294 L-63.11453989224005,-46.292508240995275 L-63.05862523822833,-46.1624644935913 L-62.996245592944504,-46.03313554455018 L-62.92743853155436,-45.90459929679487 L-62.85224550085882,-45.77693317575475 L-62.77071179432792,-45.650214082727395 L-62.68288652481775,-45.52451834855611 L-62.58882259498665,-45.39992168765109 L-62.488576665428674,-45.27649915238189 L-62.38220912054336,-45.1543250878687 L-62.26978403216239,-45.0334730871996 L-62.15136912095519,-44.91401594710084 L-62.02703571563643,-44.79602562408684 L-61.896858710000345,-44.67957319111622 L-61.760916517807516,-44.56472879478017 L-61.6192910255513,-44.45156161304875 L-61.47206754313252,-44.34013981360062 L-61.319334752471946,-44.230530512761455 L-61.16118465409162,-44.12279973507552 L-60.997712511697195,-44.01701237353497 L-60.829016794794626,-43.913232150490764 L-60.65519911937585,-43.811521579268664 L-60.47636418670907,-43.71194192651358 L-60.29261972027066,-43.6145531752848 L-60.10407640085658,-43.519413988924484 " />
			<path d="M-7.778174593052023,-17.755920907481183 L-60.10407640085655,-43.51941398892446 " />
			<path d="M7.778174593052024,-17.755920907481183 L7.584945992107738,-17.66308859427768 L7.387148503317202,-17.572619072945255 L7.18490127249154,-17.484566838940683 L6.978326125800097,-17.398984931637248 L6.767547496386893,-17.31592490237579 L6.552692349416764,-17.23543678341213 L6.333890105596297,-17.15756905777948 L6.111272563215624,-17.0823686300841 L5.88497381875807,-17.009880798251714 L5.655130186125439,-16.940149226241715 L5.421880114527626,-16.873215917745657 L5.185364105085977,-16.809121190885776 L4.945724626200676,-16.74790365392888 L4.703106027733107,-16.68960018203016 L4.457654454054894,-16.634245895020975 L4.209517756015994,-16.581874136253994 L3.9588454018848767,-16.532516452518394 L3.7057883873144286,-16.486202575037254 L3.4504991443878152,-16.442960401558576 L3.193131449799096,-16.40281597955074 L2.933840332223893,-16.365793490512466 L2.6727819789359146,-16.331915235406786 L2.4101136417255713,-16.30120162122779 L2.1459935421774152,-16.273671148708207 L1.8805807763633189,-16.249340401175246 L1.6140352190089762,-16.228224034561435 L1.3465174271913758,-16.210334768576438 L1.0781885436251653,-16.195683379045157 L0.809210199596341,-16.184278691416793 L0.5397444176015984,-16.176127575448724 L0.26995351375203647,-16.171234941068427 L2.1568179938826114e-15,-16.169603735415894 L-0.2699535137520321,-16.171234941068427 L-0.5397444176015942,-16.176127575448724 L-0.8092101995963367,-16.184278691416793 L-1.0781885436251608,-16.195683379045157 L-1.3465174271913714,-16.210334768576438 L-1.6140352190089717,-16.228224034561435 L-1.8805807763633144,-16.249340401175246 L-2.1459935421774112,-16.273671148708207 L-2.4101136417255673,-16.30120162122779 L-2.6727819789359106,-16.331915235406786 L-2.9338403322238893,-16.365793490512466 L-3.1931314497990924,-16.402815979550738 L-3.4504991443878117,-16.442960401558576 L-3.705788387314425,-16.486202575037254 L-3.958845401884873,-16.532516452518394 L-4.20951775601599,-16.581874136253994 L-4.45765445405489,-16.634245895020975 L-4.703106027733104,-16.689600182030155 L-4.945724626200673,-16.74790365392888 L-5.185364105085974,-16.809121190885776 L-5.421880114527623,-16.873215917745654 L-5.655130186125437,-16.940149226241715 L-5.884973818758066,-17.00988079825171 L-6.11127256321562,-17.0823686300841 L-6.333890105596294,-17.15756905777948 L-6.552692349416762,-17.23543678341213 L-6.76754749638689,-17.31592490237579 L-6.978326125800094,-17.398984931637244 L-7.184901272491537,-17.48456683894068 L-7.387148503317194,-17.57261907294525 L-7.584945992107735,-17.663088594277678 L-7.778174593051952,-17.755920907481148 " />
			<path d="M63.22676305192802,-41.22721018086572 L63.19453070221351,-41.11817206675148 L63.15779978842247,-41.00947937295474 L63.11658551361049,-40.90117708776728 L63.0709049365122,-40.79331003788934 L63.0207769644806,-40.68592286987573 L62.96622234566124,-40.579060031656454 L62.90726366040447,-40.47276575413954 L62.843925311919406,-40.36708403290373 L62.776233516173285,-40.26205860998857 L62.704216291040645,-40.15773295578936 L62.627903444706575,-40.05415025106469 L62.54732656332905,-39.95135336906369 L62.46251899796526,-39.849384857780684 L62.37351585076753,-39.74828692234442 L62.28035396045439,-39.64810140754921 L62.18307188706292,-39.54886978053524 L62.081709895988574,-39.45063311362514 L61.97630994131924,-39.353432067324015 L61.86691564847027,-39.25730687348994 L61.75357229612775,-39.16229731868184 L61.63632679750752,-39.06844272769166 L61.5152276809376,-38.97578194726775 L61.39032506977218,-38.884353330036014 L61.26167066164535,-38.79419471862564 L61.12931770707327,-38.7053434300059 L60.99332098741362,-38.617836240040525 L60.85373679219137,-38.53170936826604 L60.71062289580036,-38.446998462900375 L60.56403853359029,-38.363738586087926 L60.41404437734896,-38.28196419938723 L60.26070251019001,-38.2017091495072 L60.10407640085658,-38.123006654297846 " />
			<path d="M63.226763051928,-41.22721018086569 L63.226763051928,-44.70876329997965 " />
			<path d="M63.22676305192802,-44.70876329997968 L63.19453070221351,-44.59972518586544 L63.15779978842247,-44.491032492068705 L63.11658551361049,-44.38273020688124 L63.0709049365122,-44.2748631570033 L63.0207769644806,-44.16747598898969 L62.96622234566124,-44.060613150770415 L62.90726366040447,-43.9543188732535 L62.843925311919406,-43.848637152017695 L62.776233516173285,-43.74361172910253 L62.704216291040645,-43.639286074903325 L62.627903444706575,-43.53570337017865 L62.54732656332905,-43.43290648817765 L62.46251899796526,-43.330937976894646 L62.37351585076753,-43.22984004145838 L62.28035396045439,-43.129654526663174 L62.18307188706292,-43.0304228996492 L62.081709895988574,-42.9321862327391 L61.97630994131924,-42.834985186437976 L61.86691564847027,-42.738859992603906 L61.75357229612775,-42.6438504377958 L61.63632679750752,-42.54999584680562 L61.5152276809376,-42.45733506638171 L61.39032506977218,-42.365906449149975 L61.26167066164535,-42.2757478377396 L61.12931770707327,-42.18689654911986 L60.99332098741362,-42.099389359154486 L60.85373679219137,-42.013262487380004 L60.71062289580036,-41.928551582014336 L60.56403853359029,-41.84529170520189 L60.41404437734896,-41.763517318501194 L60.26070251019001,-41.683262268621164 L60.10407640085658,-41.60455977341181 " />
			<path d="M60.10407640085654,-29.59320151246864 L60.29261972027065,-29.688340698828966 L60.47636418670908,-29.78572945005775 L60.65519911937585,-29.885309102812837 L60.829016794794626,-29.987019674034933 L60.99771251169719,-30.090799897079137 L61.16118465409161,-30.196587258619687 L61.31933475247194,-30.304318036305624 L61.47206754313252,-30.41392733714479 L61.6192910255513,-30.52534913659292 L61.760916517807516,-30.638516318324342 L61.896858710000345,-30.75336071466039 L62.02703571563642,-30.869813147631007 L62.15136912095519,-30.987803470645012 L62.26978403216239,-31.10726061074377 L62.38220912054335,-31.228112611412868 L62.488576665428674,-31.350286675926057 L62.588822594986645,-31.47370921119525 L62.68288652481775,-31.59830587210027 L62.77071179432792,-31.724001606271557 L62.852245500858814,-31.850720699298915 L62.92743853155436,-31.978386820339033 L62.996245592944504,-32.10692306809434 L63.05862523822833,-32.23625201713547 L63.11453989224005,-32.36629576453944 L63.16395587408287,-32.49697597681546 L63.20684341741711,-32.628213937090116 L63.24317668839033,-32.759930592523425 L63.27293380119869,-32.89204660192736 L63.29609683127011,-33.024482383558 L63.31265182606142,-33.15715816305258 L63.322588813462765,-33.2899940214826 L63.32590180780452,-33.42290994349394 " />
			<path d="M61.129142335243934,-40.19441313476258 L63.22676305192806,-41.22721018086572 " />
			<path d="M61.1291423352439,-40.19441313476259 L61.047282405411636,-40.09815343840336 L60.96108130514821,-40.00281687205712 L60.870581942071695,-39.9084508906283 L60.77582936331132,-39.81510246590123 L60.67687073308478,-39.7228180631593 L60.573755309221724,-39.631643618056394 L60.46653441864497,-39.54162451375184 L60.355261431822036,-39.452805558320385 L60.23999173619929,-39.3652309624485 L60.120782708632234,-39.27894431742792 L59.99769368682546,-39.193988573457624 L59.87078593979663,-39.11040601826483 L59.74012263737909,-39.02823825605579 L59.605768818778344,-38.947526186806805 L59.46779136019799,-38.86830998590575 L59.32625894155137,-38.79062908415437 " />
			<path d="M7.778174593052024,-3.8297084310253533 L7.584945992107738,-3.7368761178218506 L7.387148503317202,-3.646406596489424 L7.18490127249154,-3.5583543624848524 L6.978326125800097,-3.472772455181417 L6.767547496386893,-3.3897124259199627 L6.552692349416764,-3.3092243069563 L6.333890105596297,-3.2313565813236504 L6.111272563215624,-3.156156153628272 L5.88497381875807,-3.0836683217958836 L5.655130186125439,-3.013936749785885 L5.421880114527626,-2.9470034412898265 L5.185364105085977,-2.882908714429946 L4.945724626200676,-2.82169117747305 L4.703106027733107,-2.7633877055743277 L4.457654454054894,-2.7080334185651447 L4.209517756015994,-2.6556616597981657 L3.9588454018848767,-2.6063039760625655 L3.7057883873144286,-2.559990098581424 L3.4504991443878152,-2.516747925102747 L3.193131449799096,-2.4766035030949105 L2.933840332223893,-2.4395810140566345 L2.6727819789359146,-2.405702758950957 L2.4101136417255713,-2.3749891447719618 L2.1459935421774152,-2.347458672252377 L1.8805807763633187,-2.323127924719416 L1.6140352190089762,-2.3020115581056073 L1.3465174271913756,-2.2841222921206086 L1.0781885436251653,-2.269470902589326 L0.809210199596341,-2.2580662149609623 L0.5397444176015984,-2.2499150989928953 L0.2699535137520364,-2.245022464612595 L2.1156973396590982e-15,-2.243391258960065 L-0.26995351375203214,-2.245022464612595 L-0.5397444176015942,-2.2499150989928953 L-0.8092101995963367,-2.2580662149609623 L-1.0781885436251608,-2.269470902589326 L-1.3465174271913716,-2.2841222921206086 L-1.6140352190089717,-2.3020115581056064 L-1.8805807763633147,-2.323127924719415 L-2.1459935421774112,-2.347458672252376 L-2.4101136417255673,-2.374989144771961 L-2.6727819789359106,-2.405702758950956 L-2.9338403322238893,-2.4395810140566345 L-3.1931314497990924,-2.4766035030949096 L-3.4504991443878117,-2.516747925102746 L-3.705788387314425,-2.559990098581422 L-3.958845401884873,-2.6063039760625646 L-4.20951775601599,-2.655661659798165 L-4.45765445405489,-2.708033418565144 L-4.703106027733104,-2.763387705574327 L-4.945724626200673,-2.821691177473048 L-5.185364105085974,-2.882908714429946 L-5.421880114527623,-2.9470034412898256 L-5.655130186125437,-3.013936749785884 L-5.884973818758066,-3.083668321795882 L-6.11127256321562,-3.1561561536282703 L-6.333890105596294,-3.2313565813236496 L-6.552692349416762,-3.309224306956299 L-6.76754749638689,-3.389712425919961 L-6.978326125800094,-3.472772455181416 L-7.184901272491537,-3.5583543624848515 L-7.387148503317194,-3.6464065964894203 L-7.584945992107735,-3.7368761178218493 L-7.778174593051952,-3.829708431025318 " />
			<path d="M-7.778174593052023,-3.829708431025353 L-60.10407640085655,-29.593201512468635 " />
			<path d="M-63.32590180780452,-33.42290994349399 L-63.322588813462765,-33.2899940214826 L-63.31265182606142,-33.157158163052586 L-63.29609683127011,-33.024482383558 L-63.27293380119869,-32.89204660192736 L-63.24317668839033,-32.759930592523425 L-63.20684341741711,-32.628213937090116 L-63.16395587408287,-32.49697597681546 L-63.11453989224005,-32.366295764539444 L-63.05862523822833,-32.23625201713547 L-62.996245592944504,-32.106923068094346 L-62.92743853155436,-31.978386820339036 L-62.85224550085882,-31.850720699298922 L-62.77071179432792,-31.724001606271564 L-62.68288652481775,-31.598305872100276 L-62.58882259498665,-31.473709211195256 L-62.488576665428674,-31.35028667592606 L-62.38220912054336,-31.22811261141287 L-62.26978403216239,-31.107260610743772 L-62.15136912095519,-30.987803470645016 L-62.02703571563643,-30.869813147631007 L-61.896858710000345,-30.75336071466039 L-61.760916517807516,-30.638516318324346 L-61.6192910255513,-30.52534913659292 L-61.47206754313252,-30.413927337144795 L-61.319334752471946,-30.304318036305627 L-61.16118465409162,-30.196587258619687 L-60.997712511697195,-30.09079989707914 L-60.829016794794626,-29.987019674034933 L-60.65519911937585,-29.885309102812833 L-60.47636418670907,-29.785729450057747 L-60.29261972027066,-29.68834069882897 L-60.10407640085658,-29.593201512468656 " />
			<path d="M31.85516049245397,-37.63558921762188 L31.66291612173724,-37.538758380966264 " />
			<path d="M30.014157864505343,-36.470512145233336 L29.900838598171184,-36.37477841157724 L29.791155096854013,-36.27802355712822 L29.685145302658988,-36.180281051668146 L29.582845886869514,-36.08158470663062 " />
			<path d="M45.59036790187178,-38.807190729661066 L45.37965117110002,-38.855115174600826 L45.16710614263652,-38.90104068806609 L44.95281102835455,-38.94495037048283 L44.73684468412029,-38.98682806405832 L44.51928658077561,-39.02665835872682 L44.300216774894565,-39.064426597820116 L44.079715879324304,-39.10011888346091 L43.85786503352139,-39.13372208167686 L43.63474587369423,-39.16522382723365 L43.41044050276273,-39.19461252818511 L43.18503146014633,-39.22187737013876 L42.95860169139118,-39.24700832023532 L42.73123451764817,-39.269996130840525 L42.503013605012455,-39.290832342948114 L42.274022933736255,-39.3095092892925 L42.044346767325955,-39.326020097170186 L41.81406962153501,-39.34035869096876 L41.58327623326399,-39.35251979440258 L41.35205152937929,-39.36249893245434 L41.12048059546193,-39.37029243302179 L40.88864864449793,-39.37589742826893 L40.656640985521804,-39.37931185568139 L40.42454299222474,-39.380534458825345 L40.19244007153894,-39.37956478780985 L39.96041763220982,-39.37640319945241 L39.728561053367386,-39.37105085714767 L39.49695565310869,-39.36350973043932 L39.265686657102584,-39.353782594295325 L39.03483916722861,-39.34187302808682 L38.804498130261365,-39.32778541427097 L38.574748306611966,-39.311524936778326 L38.34567423913809,-39.29309757910525 L38.11736022203408,-39.27251012211214 L37.889890269812554,-39.24977014152817 L37.66334808638888,-39.22488600516365 L37.43781703428003,-39.19786686983084 L37.21338010392899,-39.168722677974415 L36.99011988316613,-39.1374641540129 L36.76811852681868,-39.10410280039232 L36.54745772647961,-39.06865089335351 L36.32821868044687,-39.03112147841479 L36.110482063844266,-38.991528365571455 L35.89432799893479,-38.94988612421405 L35.679836025637364,-38.9062100777671 L35.467085072257944,-38.86051629805046 L35.25615342644561,-38.812821599365265 L35.04711870638449,-38.763143532306565 L34.840057832231935,-38.71150037730517 L34.63504699781364,-38.657911137900825 L34.43216164258597,-38.602395533749316 L34.23147642387594,-38.544973993366085 L34.03306518940892,-38.485667646609 L33.83700095013437,-38.424498316903 L33.643355853359346,-38.361488513209586 L33.45220115619995,-38.29666142174403 L33.263607199360266,-38.2300408974433 L33.07764338124852,-38.16165145518807 L32.89437813244003,-38.09151826078168 L32.713878890496225,-38.01966712168975 L32.53621207514915,-37.94612447754356 L32.36144306386045,-37.8709173904109 L32.18963616776393,-37.794073534837764 L32.02085460800045,-37.71562118766476 L31.85516049245402,-37.6355892176219 " />
			<path d="M12.65721138323921,-74.54005228022982 L12.65721138323921,-62.26757753535312 " />
			<path d="M28.708535316173826,-54.36445195496444 L12.6572113832392,-62.26757753535312 " />
			<path d="M37.1938166904124,-53.058869535296715 L29.76919548795366,-56.71450031036636 " />
			<path d="M28.708535316173826,-65.59246076410695 L28.708535316173826,-60.544208741391714 " />
			<path d="M53.386561979584336,-41.25640446150039 L28.70853531617383,-53.4070248472081 " />
			<path d="M28.708535316173826,-56.192267342499264 L28.708535316173826,-53.4070248472081 " />
			<path d="M37.1938166904124,-52.01440359956251 L28.708535316173823,-56.192267342499264 " />
			<path d="M37.1938166904124,-56.36634499845496 L37.1938166904124,-52.01440359956252 " />
			<path d="M37.1938166904124,-56.36634499845496 L28.708535316173823,-60.544208741391714 " />
			<path d="M61.129142335243856,-40.194413134762534 L61.129142335243856,-42.18678129855272 " />
			<path d="M-53.38656197958434,-41.256404461500395 L-6.7175144212722016,-64.23465504765251 " />
			<path d="M-6.717514421272203,-64.23465504765251 L-6.550635175002138,-64.31482840905554 L-6.379810071046676,-64.392961177479 L-6.205142008060882,-64.46900628866476 L-6.026736199554634,-64.54291793588136 L-5.844700110515957,-64.61465159751626 L-5.65914339267812,-64.68416406389396 L-5.470177818469533,-64.75141346330398 L-5.277917213686224,-64.81635928722271 L-5.082477388927424,-64.87896241471432 L-4.883976069835607,-64.93918513599569 L-4.682532826182951,-64.99699117515136 L-4.478268999846981,-65.0523457119849 L-4.271307631718766,-65.10521540299314 L-4.0617733875876825,-65.15556840145112 L-3.8497924830474055,-65.20337437659542 L-3.6354926074683553,-65.24860453189417 L-3.4190028470823903,-65.2912316223931 L-3.200453607226092,-65.33122997112682 L-2.9799765337894697,-65.36857548458566 L-2.757704433917394,-65.4032456672288 L-2.5337711960115366,-65.43521963503458 L-2.3083117090810097,-65.4644781280804 L-2.0814617814902667,-65.49100352214407 L-1.8533580591532208,-65.51477983932008 L-1.6241379432228626,-65.535792757644 L-1.3939395073259384,-65.55402961971956 L-1.1629014143925565,-65.56947944034297 L-0.9311628331308291,-65.58213291311998 L-0.6988633541968449,-65.59198241607176 L-0.4661429061104741,-65.59902201622599 L-0.23314167096766839,-65.6032474731908 L-2.45013486029189e-15,-65.6046562417089 L0.23314167096766347,-65.6032474731908 L0.4661429061104692,-65.59902201622599 L0.6988633541968399,-65.59198241607176 L0.9311628331308243,-65.58213291311999 L1.1629014143925518,-65.56947944034297 L1.3939395073259337,-65.55402961971956 L1.624137943222858,-65.535792757644 L1.8533580591532162,-65.51477983932008 L2.081461781490262,-65.49100352214407 L2.308311709081005,-65.4644781280804 L2.533771196011532,-65.43521963503458 L2.7577044339173886,-65.4032456672288 L2.979976533789465,-65.36857548458566 L3.2004536072260876,-65.33122997112682 L3.419002847082386,-65.2912316223931 L3.6354926074683505,-65.24860453189417 L3.8497924830474024,-65.20337437659542 L4.06177338758768,-65.15556840145112 L4.271307631718762,-65.10521540299314 L4.478268999846977,-65.0523457119849 L4.682532826182946,-64.99699117515136 L4.883976069835604,-64.93918513599569 L5.08247738892742,-64.87896241471432 L5.277917213686217,-64.81635928722271 L5.4701778184695256,-64.75141346330398 L5.659143392678112,-64.68416406389396 L5.844700110515949,-64.61465159751626 L6.026736199554629,-64.54291793588136 L6.205142008060879,-64.46900628866476 L6.379810071046673,-64.392961177479 L6.550635175002134,-64.31482840905554 L6.71751442127217,-64.23465504765252 " />
			<path d="M11.596551211459385,-61.83238339546387 L6.7175144212722016,-64.23465504765251 " />
			<path d="M11.59655121145938,-74.01781931236272 L11.59655121145938,-61.83238339546387 " />
			<path d="M11.066221125569474,-61.57126691153033 L11.596551211459385,-61.83238339546387 " />
			<path d="M11.1546094732178,-61.5277474975414 L12.657211383239211,-62.26757753535311 " />
			<path d="M31.85516049245397,-39.376365777178854 L31.611293585777034,-39.25276974626884 L31.37478851338112,-39.12575284766786 L31.14584313197708,-38.99542134186975 L30.924648973948006,-38.861884262320565 L30.71139108711602,-38.72525332420286 L30.506247879933944,-38.585642830976354 L30.309390972231395,-38.44316957875333 L30.120985051640133,-38.29795275858871 " />
			<path d="M28.9097240777333,-37.01429775124031 L28.84891902536184,-36.92004334135226 L28.79129994965477,-36.82530496684857 L28.736882727564442,-36.73010873291471 L28.68568235377155,-36.63448087089942 L28.637712936553335,-36.538447731086706 L28.592987693896077,-36.44203577543497 L28.551518949852827,-36.345271570285426 L28.51331813114755,-36.248181779041744 L28.47839576402647,-36.15079315482291 L28.446761471357576,-36.053132533091436 L28.41842396997901,-35.95522682425883 L28.39339106829717,-35.85710300627041 L28.371669664135077,-35.75878811717152 L28.353265742831695,-35.660309247657224 L28.33818437559266,-35.56169353360743 L28.326429718092918,-35.462968148609626 " />
			<path d="M28.658513254738207,-33.746436094909335 L28.712645361911306,-33.641731644353555 L28.770624988374138,-33.53752774917509 L28.83243306522092,-33.43385868096864 L28.898049264407717,-33.33075853542978 L28.967452005438147,-33.22826122114126 L29.040618462460948,-33.12640044842078 L29.11752457177719,-33.025209718234045 L29.19814503975458,-32.92472231117663 L29.282453351146266,-32.82497127652832 L29.37042177781145,-32.72598942138357 L29.462021387834874,-32.62780929986154 L29.557222055042224,-32.53046320239943 L29.655992468908345,-32.43398314513245 L29.758300144854942,-32.33840085936406 L29.864111434934408,-32.243747781129855 L29.97339153889631,-32.15005504085859 L30.086104515632826,-32.05735345313367 L30.202213294999424,-31.965673506558616 L30.321679690006825,-31.875045353729583 L30.444464409380323,-31.785498801318553 L30.57052707048231,-31.697063300270194 L30.699826212593674,-31.60976793611574 L30.83231931054982,-31.52364141940709 L30.967962788726773,-31.438712076274168 L31.10671203537273,-31.355007839108758 L31.248521417280443,-31.272556237377835 L31.39334429479547,-31.1913843885694 L31.541133037155525,-31.111518989273804 L31.69183903815571,-31.032986306403544 L31.84541273213463,-30.955812168554296 L32.00180361027601,-30.88002195751021 L32.16096023722049,-30.805640599896073 " />
			<path d="M45.59036790187178,-40.54796728921804 L45.37965117110002,-40.5958917341578 L45.16710614263652,-40.64181724762307 L44.95281102835455,-40.685726930039806 L44.73684468412029,-40.7276046236153 L44.51928658077561,-40.7674349182838 L44.300216774894565,-40.80520315737709 L44.079715879324304,-40.840895443017885 L43.85786503352139,-40.874498641233835 L43.63474587369423,-40.90600038679063 L43.41044050276273,-40.93538908774209 L43.18503146014633,-40.96265392969574 L42.95860169139118,-40.987784879792294 L42.73123451764817,-41.0107726903975 L42.503013605012455,-41.03160890250509 L42.274022933736255,-41.05028584884948 L42.044346767325955,-41.06679665672716 L41.81406962153501,-41.08113525052574 L41.58327623326399,-41.09329635395956 L41.35205152937929,-41.10327549201132 L41.12048059546193,-41.111068992578765 L40.88864864449793,-41.116673987825905 L40.656640985521804,-41.120088415238364 L40.42454299222474,-41.12131101838232 L40.19244007153894,-41.120341347366825 L39.96041763220982,-41.11717975900939 L39.728561053367386,-41.11182741670465 L39.49695565310869,-41.104286289996296 L39.265686657102584,-41.0945591538523 L39.03483916722861,-41.0826495876438 L38.804498130261365,-41.06856197382795 L38.574748306611966,-41.0523014963353 L38.34567423913809,-41.03387413866223 L38.11736022203408,-41.013286681669115 L37.889890269812554,-40.990546701085144 L37.66334808638888,-40.965662564720624 L37.43781703428003,-40.93864342938782 L37.21338010392899,-40.90949923753139 L36.99011988316613,-40.87824071356988 L36.76811852681868,-40.844879359949296 L36.54745772647961,-40.809427452910484 L36.32821868044687,-40.771898037971766 L36.110482063844266,-40.73230492512843 L35.89432799893479,-40.69066268377103 L35.679836025637364,-40.646986637324076 L35.467085072257944,-40.60129285760744 L35.25615342644561,-40.55359815892224 L35.04711870638449,-40.50392009186354 L34.840057832231935,-40.45227693686215 L34.63504699781364,-40.3986876974578 L34.43216164258597,-40.34317209330629 L34.23147642387594,-40.28575055292306 L34.03306518940892,-40.22644420616598 L33.83700095013437,-40.165274876459975 L33.643355853359346,-40.10226507276656 L33.45220115619995,-40.037437981301004 L33.263607199360266,-39.97081745700028 L33.07764338124852,-39.90242801474505 L32.89437813244003,-39.83229482033866 L32.713878890496225,-39.76044368124673 L32.53621207514915,-39.68690103710054 L32.36144306386045,-39.61169394996788 L32.18963616776393,-39.53485009439474 L32.02085460800045,-39.456397747221736 L31.85516049245402,-39.376365777178876 " />
			<path d="M28.178205230283925,-53.14590836327456 L28.708535316173837,-53.4070248472081 " />
			<path d="M28.708535316173837,-56.192267342499264 L29.769195487953656,-56.714500310366354 " />
			<path d="M11.066221125569474,-61.57126691153032 L28.178205230283925,-53.14590836327455 " />
			<path d="M-33.569552621700474,-39.34155024598771 L-33.573407161843924,-39.264240637132026 L-33.58496149634945,-39.1871172738956 L-33.60418778981318,-39.11036595321568 L-33.63103972441014,-39.03417157574639 L-33.66545261147794,-38.958717700416905 L-33.70734354735741,-38.884186102221875 L-33.75661161311481,-38.81075633430954 L-33.81313811766436,-38.738605295422495 L-33.876786883705456,-38.6679068037331 L-33.94740457578574,-38.5988311781003 L-34.024821069699605,-38.53154482775654 L-34.108849862332335,-38.4662098514134 L-34.19928852096241,-38.40298364675155 L-34.29591917093972,-38.342018531235986 L-34.39850902056461,-38.28346137516989 L-34.50681092190352,-38.227453247871246 L-34.62056396619002,-38.17412907782443 L-34.73949411237681,-38.12361732762574 L-34.86331484732469,-38.0760396845057 L-34.99172787603775,-38.03151076717391 L-35.12442384028217,-37.99013784969249 L-35.261083063857285,-37.95202060304349 L-35.40137632272357,-37.91725085501277 L-35.54496563813219,-37.88591236896879 L-35.69150509084537,-37.858080642069375 L-35.84064165448619,-37.83382272338239 L-35.99201604601003,-37.813197052358696 L-36.14526359124886,-37.79625331804638 L-36.30001510344332,-37.7830323393855 L-36.45589777264588,-37.77356596687167 L-36.61253606385274,-37.76787700582544 L-36.76955262170048,-37.76597916145225 L-36.92656917954822,-37.76787700582544 L-37.08320747075507,-37.77356596687167 L-37.23909013995763,-37.7830323393855 L-37.39384165215209,-37.79625331804638 L-37.547089197390925,-37.813197052358696 L-37.698463588914755,-37.83382272338239 L-37.847600152555586,-37.858080642069375 L-37.994139605268764,-37.88591236896879 L-38.13772892067738,-37.91725085501277 L-38.27802217954367,-37.95202060304349 L-38.414681403118784,-37.99013784969249 L-38.547377367363204,-38.03151076717391 L-38.67579039607626,-38.0760396845057 L-38.79961113102414,-38.12361732762574 L-38.918541277210934,-38.17412907782443 L-39.03229432149743,-38.227453247871246 L-39.14059622283635,-38.28346137516989 L-39.243186072461235,-38.342018531235986 L-39.33981672243854,-38.40298364675155 L-39.43025538106862,-38.466209851413396 L-39.51428417370135,-38.53154482775654 L-39.591700667615214,-38.5988311781003 L-39.6623183596955,-38.6679068037331 L-39.725967125736595,-38.738605295422495 L-39.78249363028614,-38.81075633430954 L-39.83176169604354,-38.88418610222187 L-39.873652631923015,-38.958717700416905 L-39.90806551899082,-39.034171575746385 L-39.93491745358778,-39.11036595321568 L-39.9541437470515,-39.1871172738956 L-39.96569808155703,-39.264240637132026 L-39.96955262170048,-39.3415502459877 " />
			<path d="M-23.051681066681436,-39.341550245987705 L8.485281374238575,-23.81382333473946 " />
			<path d="M8.485281374238577,-23.813823334739464 L28.65851325473799,-33.74643609490939 " />
			<path d="M28.65851325473799,-33.74643609490939 L32.95117600329312,-35.85999712687376 " />
			<path d="M30.19345955666558,-36.38223009474085 L28.909724077733173,-37.01429775124028 " />
			<path d="M28.909724077733173,-37.01429775124028 L1.4142135623730874,-50.552151289534656 " />
			<path d="M-20.29396462005391,-39.8637832138548 L1.4142135623730943,-50.55215128953465 " />
			<path d="M-57.195256055574525,-43.131675791491524 L-56.98908678670977,-43.10224456289599 L-56.78738891611968,-43.06607392373206 L-56.59107006119492,-43.02332663774653 L-56.40101363436977,-42.97419506284605 L-56.218074867866996,-42.918900285508535 L-56.129533211819215,-42.88901839866988 L-56.043076965250535,-42.85769112591924 L-55.958803416340075,-42.82495371946155 L-55.8768073971034,-42.790843018308315 L-55.7971811766792,-42.75539740682315 L-55.72001435749995,-42.71865677152826 L-55.645393774463344,-42.68066245622064 L-55.57340339721802,-42.64145721544838 L-55.50412423567356,-42.60108516639953 L-55.437634248840936,-42.5595917392575 L-55.37400825710625,-42.51702362607904 L-55.3133178580362,-42.47342872825223 L-55.255631345810194,-42.42885610259364 L-55.20101363436976,-42.38335590614525 L-55.14952618437163,-42.33697933973333 L-55.101226934026826,-42.289778590352796 L-55.05617023390346,-42.241806772441784 L-55.01440678576672,-42.19311786811262 L-54.97598358552474,-42.14376666640638 L-54.94094387034472,-42.09380870163946 L-54.909327069998604,-42.04330019091145 L-54.88116876249329,-41.99229797084474 " />
			<path d="M-39.03229432149743,-46.896520514465 L-38.94747581464593,-46.936772401756976 L-38.859705719152565,-46.975459879858604 L-38.76910298375611,-47.01253051830708 L-38.675790396076266,-47.04793407783055 L-38.57989441620804,-47.08162257843388 L-38.481545005339186,-47.113550364422665 L-38.38087544962277,-47.14367416627722 L-38.27802217954367,-47.171953159292755 L-38.173124585023764,-47.198349018906285 L-38.06632482651644,-47.22282597263525 L-37.957767642346354,-47.24535084855749 L-37.84760015255558,-47.265893120266874 L-37.73597165952201,-47.2844249482436 L-37.62303344562015,-47.30092121758317 L-37.50893856819862,-47.31535957203293 L-37.39384165215209,-47.32772044428987 L-37.277898680368835,-47.337987082518914 L-37.16126678233797,-47.34614557305547 L-37.044104021202685,-47.35218485926171 L-36.92656917954822,-47.35609675651081 L-36.80882154421478,-47.357875963279035 L-36.69102069042716,-47.35752006833053 L-36.57332626553341,-47.35502955398511 L-36.45589777264588,-47.35040779546458 L-36.338894354477674,-47.34366105631853 L-36.22247457766751,-47.33479847993582 L-36.106796217885375,-47.32383207715314 L-35.99201604601003,-47.31077670997755 L-35.87828961566831,-47.295650071445074 L-35.76577105242402,-47.27847266164249 L-35.65461284490229,-47.25926775992503 L-35.54496563813219,-47.23806139336746 L-35.43697802938804,-47.214882301491386 L-35.330796366805735,-47.189761897316586 L-35.22656455104728,-47.16273422478908 L-35.12442384028217,-47.13383591264376 L-35.02451265874993,-47.10310612476399 L-34.92696640916337,-47.070586507105496 L-34.831917289206636,-47.0363211312565 L-34.73949411237681,-47.00035643471051 L-34.649822133411924,-46.96274115793285 L-34.563022878541865,-46.92352627830602 L-34.47921398079226,-46.88276494104364 L-34.39850902056461,-46.840512387166356 L-34.321017371708606,-46.79682587863754 L-34.246844053295334,-46.75176462076013 L-34.176089587292175,-46.70538968193973 L-34.108849862332335,-46.65776391092285 L-34.04521600376363,-46.608951851622365 L-33.9852742501526,-46.559019655645585 L-33.929105836411345,-46.50803499264357 L-33.876786883705456,-46.456066958603145 L-33.82838829629229,-46.40318598220586 L-33.78397566542931,-46.34946372938089 L-33.74360918048281,-46.29497300618118 L-33.70734354735741,-46.239787660114374 L-33.67522791435695,-46.18398248006247 L-33.64730580557718,-46.127633094925564 L-33.62361506192058,-46.070815871127266 L-33.604187789813174,-46.01360780912057 L-33.58905031769294,-45.95608643903445 L-33.57822316032867,-45.89832971560264 L-33.571720991017756,-45.840415912516995 L-33.569552621700474,-45.782423516348544 " />
			<path d="M-33.569552621700474,-45.78242351634854 L-33.573407161843924,-45.70511390749285 L-33.58496149634945,-45.62799054425643 L-33.60418778981318,-45.5512392235765 L-33.63103972441014,-45.47504484610722 L-33.66545261147794,-45.39959097077773 L-33.70734354735741,-45.3250593725827 L-33.75661161311481,-45.25162960467036 L-33.81313811766436,-45.17947856578332 L-33.876786883705456,-45.10878007409393 L-33.94740457578574,-45.03970444846112 L-34.024821069699605,-44.972418098117366 L-34.108849862332335,-44.90708312177423 L-34.19928852096241,-44.843856917112376 L-34.29591917093972,-44.78289180159681 L-34.39850902056461,-44.72433464553072 L-34.50681092190352,-44.66832651823207 L-34.62056396619002,-44.61500234818526 L-34.73949411237681,-44.56449059798656 L-34.86331484732469,-44.51691295486653 L-34.99172787603775,-44.47238403753474 L-35.12442384028217,-44.43101112005331 L-35.261083063857285,-44.39289387340432 L-35.40137632272357,-44.35812412537359 L-35.54496563813219,-44.326785639329614 L-35.69150509084537,-44.2989539124302 L-35.84064165448619,-44.274695993743215 L-35.99201604601003,-44.25407032271952 L-36.14526359124886,-44.23712658840721 L-36.30001510344332,-44.223905609746325 L-36.45589777264588,-44.2144392372325 L-36.61253606385274,-44.208750276186265 L-36.76955262170048,-44.206852431813076 L-36.92656917954822,-44.208750276186265 L-37.08320747075507,-44.2144392372325 L-37.23909013995763,-44.223905609746325 L-37.39384165215209,-44.23712658840721 L-37.547089197390925,-44.25407032271952 L-37.698463588914755,-44.274695993743215 L-37.847600152555586,-44.2989539124302 L-37.994139605268764,-44.326785639329614 L-38.13772892067738,-44.35812412537359 L-38.27802217954367,-44.39289387340432 L-38.414681403118784,-44.43101112005331 L-38.547377367363204,-44.47238403753474 L-38.67579039607626,-44.51691295486653 L-38.79961113102414,-44.56449059798656 L-38.918541277210934,-44.61500234818526 L-39.03229432149743,-44.66832651823207 L-39.14059622283635,-44.72433464553072 L-39.243186072461235,-44.78289180159681 L-39.33981672243854,-44.843856917112376 L-39.43025538106862,-44.90708312177422 L-39.51428417370135,-44.972418098117366 L-39.591700667615214,-45.03970444846112 L-39.6623183596955,-45.10878007409393 L-39.725967125736595,-45.17947856578332 L-39.78249363028614,-45.25162960467036 L-39.83176169604354,-45.32505937258269 L-39.873652631923015,-45.39959097077773 L-39.90806551899082,-45.47504484610721 L-39.93491745358778,-45.5512392235765 L-39.9541437470515,-45.62799054425643 L-39.96569808155703,-45.70511390749285 L-39.96955262170048,-45.78242351634852 " />
			<path d="M-39.96955262170048,-45.78242351634854 L-39.96569808155703,-45.85973312520422 L-39.9541437470515,-45.93685648844065 L-39.93491745358778,-46.01360780912057 L-39.90806551899082,-46.08980218658986 L-39.873652631923015,-46.165256061919344 L-39.83176169604354,-46.239787660114374 L-39.78249363028614,-46.31321742802671 L-39.725967125736595,-46.385368466913754 L-39.6623183596955,-46.456066958603145 L-39.591700667615214,-46.52514258423595 L-39.51428417370135,-46.59242893457971 L-39.43025538106862,-46.65776391092285 L-39.33981672243854,-46.7209901155847 L-39.243186072461235,-46.78195523110026 L-39.14059622283634,-46.840512387166356 L-39.03229432149743,-46.896520514465 " />
			<path d="M8.485281374238577,-23.813823334739464 L8.485281374238577,-24.85828927047365 " />
			<path d="M-23.051681066681436,-40.38601618172189 L8.485281374238575,-24.858289270473648 " />
			<path d="M-23.051681066681436,-39.341550245987705 L-23.051681066681436,-40.38601618172189 " />
			<path d="M-23.051681066681436,-40.38601618172189 L1.4142135623731102,-52.43218997385618 " />
			<path d="M32.95117600329312,-35.85999712687375 L32.95117600329312,-36.90446306260794 " />
			<path d="M32.95117600329312,-36.90446306260794 L1.4142135623731091,-52.43218997385618 " />
			<path d="M8.485281374238577,-24.85828927047365 L32.95117600329312,-36.904463062607945 " />
			<path d="M1.4142135623730925,-50.55215128953465 L1.4142135623730925,-51.59661722526884 " />
			<path d="M31.254119728445396,-36.904463062607945 L1.4142135623730874,-51.596617225268844 " />
			<path d="M-21.354624791833732,-40.3860161817219 L1.4142135623730943,-51.59661722526884 " />
			<path d="M8.485281374238573,-25.693862019061 L-21.354624791833736,-40.3860161817219 " />
			<path d="M8.485281374238571,-25.693862019061 L31.2541197284454,-36.90446306260794 " />
			<path d="M-37.335238046649714,-46.06094776587766 L-37.387960984390666,-46.03230644503647 L-37.434728311542514,-46.00125861499212 L-37.47508963317916,-45.96810328332039 L-37.50865624770951,-45.93315975398984 L-37.53510489028624,-45.896764552289994 L-37.55418084602306,-45.85926818390887 L-37.565700403038235,-45.821031759371564 L-37.569552621700474,-45.78242351634854 " />
			<path d="M-37.569552621700474,-45.78242351634854 L-37.565700403038235,-45.74381527332551 L-37.55418084602306,-45.70557884878821 L-37.53510489028624,-45.66808248040708 L-37.5086562477095,-45.63168727870723 L-37.47508963317916,-45.596743749376685 L-37.434728311542514,-45.563588417704956 L-37.387960984390666,-45.532540587660606 L-37.335238046649714,-45.50389926681942 L-37.27706724903139,-45.47794028675804 L-37.21400880811616,-45.45491364664509 L-37.14667001116128,-45.435041105612484 L-37.07569936759255,-45.41851404709381 L-37.00178036350405,-45.4054916356972 L-36.92562487931338,-45.3960992843632 L-36.84796633396412,-45.390427446569525 L-36.76955262170048,-45.38853074521467 L-36.69113890943683,-45.390427446569525 L-36.61348036408757,-45.3960992843632 L-36.53732487989691,-45.4054916356972 L-36.463405875808405,-45.41851404709381 L-36.39243523223968,-45.435041105612484 L-36.3250964352848,-45.45491364664509 L-36.262037994369564,-45.47794028675804 L-36.20386719675124,-45.50389926681942 L-36.15114425901029,-45.532540587660606 L-36.10437693185844,-45.563588417704956 L-36.064015610221794,-45.596743749376685 L-36.03044899569145,-45.63168727870723 L-36.00400035311471,-45.66808248040708 L-35.984924397377895,-45.70557884878821 L-35.97340484036272,-45.74381527332551 L-35.96955262170048,-45.78242351634853 " />
			<path d="M-35.96955262170048,-45.78242351634854 L-35.97172025635752,-45.811400066162065 L-35.97821141372865,-45.84021958954155 L-35.98899091766965,-45.868725910992794 L-36.00400035311471,-45.896764552289994 L-36.02315838263269,-45.924183569606626 L-36.046361187201725,-45.95083437691219 L-36.073483028813506,-45.9765725511728 L-36.10437693185844,-46.00125861499212 L-36.13887547959919,-46.024758792451436 L-36.17679172141651,-46.04694573405299 L-36.21792018591082,-46.06769920683791 L-36.26203799436956,-46.08690674593903 L-36.3089060685662,-46.10446426403778 L-36.3582704263459,-46.12027661542234 L-36.40986355797679,-46.13425811159055 L-36.463405875808405,-46.146332985603266 L-36.51860722938137,-46.15643580267202 L-36.575168477777865,-46.16451181475579 L-36.63278311069224,-46.17051725724536 L-36.69113890943683,-46.17441958612755 L-36.74991963888215,-46.17619765434404 L-36.80880676116241,-46.1758418263891 L-36.86748116185985,-46.173354030525275 L-36.92562487931338,-46.16874774833387 L-36.9829228276804,-46.1620479416572 L-37.03906450441425,-46.15329091732812 L-37.09374567290447,-46.14252413042021 L-37.14667001116128,-46.12980592708459 L-37.197550717610156,-46.11520522836707 L-37.246112065294426,-46.09880115671904 L-37.2920908960635,-46.08068260722605 L-37.335238046649714,-46.06094776587766 " />
			<path d="M46.52762620207483,-42.37050145961686 L46.61244470892633,-42.410753346908834 L46.700214804419694,-42.44944082501046 L46.790817539816146,-42.48651146345894 L46.88413012749599,-42.521915022982405 L46.98002610736422,-42.55560352358574 L47.078375518233074,-42.58753130957452 L47.17904507394949,-42.61765511142908 L47.28189834402859,-42.64593410444461 L47.386795938548495,-42.67232996405814 L47.49359569705582,-42.69680691778711 L47.602152881225905,-42.71933179370935 L47.71232037101668,-42.73987406541873 L47.82394886405025,-42.758405893395455 L47.93688707795211,-42.77490216273503 L48.050981955373636,-42.78934051718479 L48.16607887142017,-42.801701389441725 L48.282021843203424,-42.81196802767077 L48.39865374123429,-42.82012651820733 L48.515816502369574,-42.82616580441357 L48.63335134402404,-42.83007770166267 L48.75109897935748,-42.83185690843089 L48.8688998331451,-42.83150101348239 L48.98659425803885,-42.82901049913697 L49.104022750926376,-42.824388740616435 L49.221026169094586,-42.81764200147039 L49.33744594590475,-42.80877942508768 L49.453124305686885,-42.797813022305 L49.56790447756223,-42.78475765512941 L49.68163090790395,-42.76963101659693 L49.79414947114824,-42.75245360679435 L49.90530767866997,-42.73324870507689 L50.01495488544007,-42.71204233851932 L50.12294249418422,-42.688863246643244 L50.229124156766524,-42.663742842468444 L50.33335597252498,-42.636715169940935 L50.43549668329009,-42.60781685779562 L50.53540786482233,-42.57708706991585 L50.63295411440889,-42.544567452257354 L50.72800323436562,-42.51030207640836 L50.82042641119545,-42.47433737986237 L50.910098390160336,-42.436722103084705 L50.996897645030394,-42.39750722345788 L51.08070654278,-42.3567458861955 L51.16141150300765,-42.314493332318214 L51.23890315186365,-42.2708068237894 L51.313076470276926,-42.225745565911986 L51.383830936280084,-42.179370627091586 L51.451070661239925,-42.13174485607471 L51.51470451980863,-42.08293279677422 L51.57464627341966,-42.03300060079744 L51.630814687160914,-41.98201593779543 L51.6831336398668,-41.930047903755 L51.73153222727997,-41.87716692735772 L51.77594485814295,-41.82344467453275 L51.81631134308945,-41.76895395133304 L51.85257697621485,-41.71376860526623 L51.88469260921531,-41.65796342521433 L51.912614717995076,-41.60161404007742 L51.93630546165168,-41.544796816279124 L51.955732733759085,-41.48758875427243 L51.97087020587932,-41.43006738418631 L51.98169736324359,-41.3723106607545 L51.9881995325545,-41.314396857668854 L51.990367901871785,-41.2564044615004 " />
			<path d="M51.990367901871785,-41.256404461500395 L51.986513361728335,-41.17909485264471 L51.97495902722281,-41.101971489408285 L51.95573273375908,-41.02522016872836 L51.92888079916212,-40.949025791259075 L51.89446791209432,-40.87357191592959 L51.85257697621485,-40.79904031773456 L51.803308910457446,-40.72561054982222 L51.7467824059079,-40.65345951093518 L51.6831336398668,-40.58276101924579 L51.61251594778652,-40.51368539361298 L51.535099453872654,-40.446399043269224 L51.451070661239925,-40.381064066926086 L51.36063200260985,-40.317837862264234 L51.26400135263254,-40.25687274674867 L51.16141150300765,-40.198315590682576 L51.05310960166874,-40.14230746338393 L50.93935655738224,-40.088983293337115 L50.82042641119545,-40.03847154313842 L50.69660567624757,-39.990893900018385 L50.56819264753451,-39.946364982686596 L50.43549668329009,-39.90499206520517 L50.298837459714974,-39.86687481855618 L50.15854420084869,-39.83210507052545 L50.01495488544007,-39.80076658448147 L49.86841543272689,-39.77293485758206 L49.71927886908607,-39.74867693889507 L49.56790447756223,-39.72805126787138 L49.414656932323396,-39.711107533559066 L49.25990542012894,-39.69788655489818 L49.104022750926376,-39.688420182384355 L48.94738445971952,-39.68273122133812 L48.79036790187178,-39.680833376964934 L48.63335134402404,-39.68273122133812 L48.47671305281719,-39.688420182384355 L48.32083038361463,-39.69788655489818 L48.16607887142017,-39.711107533559066 L48.012831326181335,-39.72805126787138 L47.861456934657504,-39.74867693889507 L47.71232037101667,-39.77293485758206 L47.565780918303496,-39.80076658448147 L47.42219160289488,-39.83210507052545 L47.28189834402859,-39.86687481855618 L47.145239120453475,-39.90499206520517 L47.012543156209055,-39.946364982686596 L46.884130127496,-39.990893900018385 L46.760309392548116,-40.03847154313842 L46.641379246361325,-40.088983293337115 L46.52762620207483,-40.14230746338393 L46.41932430073591,-40.19831559068258 L46.316734451111024,-40.25687274674867 L46.22010380113372,-40.317837862264234 L46.12966514250364,-40.38106406692608 L46.04563634987091,-40.446399043269224 L45.968219855957045,-40.51368539361298 L45.89760216387676,-40.58276101924579 L45.833953397835664,-40.65345951093518 L45.77742689328612,-40.72561054982222 L45.728158827528716,-40.79904031773455 L45.686267891649244,-40.87357191592959 L45.65185500458144,-40.94902579125907 L45.62500306998448,-41.02522016872836 L45.605776776520756,-41.101971489408285 L45.59422244201523,-41.17909485264471 L45.59036790187178,-41.25640446150038 " />
			<path d="M45.59036790187178,-41.256404461500395 L45.59422244201523,-41.33371407035608 L45.605776776520756,-41.410837433592505 L45.62500306998448,-41.48758875427243 L45.65185500458144,-41.563783131741715 L45.686267891649244,-41.6392370070712 L45.728158827528716,-41.71376860526623 L45.77742689328612,-41.78719837317857 L45.833953397835664,-41.85934941206561 L45.89760216387676,-41.930047903755 L45.968219855957045,-41.99912352938781 L46.04563634987091,-42.066409879731566 L46.12966514250364,-42.13174485607471 L46.22010380113372,-42.194971060736556 L46.316734451111024,-42.25593617625212 L46.419324300735916,-42.314493332318214 L46.52762620207483,-42.37050145961686 " />
			<path d="M48.224682476922546,-41.534928711029515 L48.17195953918159,-41.50628739018833 L48.125192212029745,-41.475239560143976 L48.0848308903931,-41.44208422847225 L48.05126427586275,-41.4071406991417 L48.02481563328602,-41.37074549744185 L48.0057396775492,-41.333249129060725 L47.994220120534024,-41.29501270452342 L47.990367901871785,-41.256404461500395 " />
			<path d="M47.990367901871785,-41.256404461500395 L47.994220120534024,-41.21779621847737 L48.0057396775492,-41.179559793940065 L48.02481563328602,-41.14206342555894 L48.051264275862756,-41.10566822385909 L48.0848308903931,-41.07072469452854 L48.125192212029745,-41.037569362856814 L48.17195953918159,-41.006521532812464 L48.224682476922546,-40.977880211971275 L48.28285327454087,-40.9519212319099 L48.3459117154561,-40.92889459179695 L48.41325051241098,-40.90902205076434 L48.48422115597971,-40.892494992245666 L48.55814016006821,-40.87947258084906 L48.63429564425888,-40.87008022951506 L48.711954189608136,-40.86440839172138 L48.79036790187178,-40.86251169036653 L48.86878161413543,-40.86440839172138 L48.94644015948469,-40.87008022951506 L49.02259564367535,-40.87947258084906 L49.096514647763854,-40.892494992245666 L49.16748529133258,-40.90902205076434 L49.23482408828746,-40.92889459179695 L49.297882529202695,-40.9519212319099 L49.35605332682102,-40.977880211971275 L49.40877626456197,-41.006521532812464 L49.45554359171382,-41.037569362856814 L49.495904913350465,-41.07072469452854 L49.52947152788081,-41.10566822385909 L49.55592017045755,-41.14206342555894 L49.574996126194364,-41.179559793940065 L49.58651568320954,-41.21779621847737 L49.59036790187178,-41.25640446150039 " />
			<path d="M49.59036790187178,-41.256404461500395 L49.58820026721474,-41.28538101131392 L49.58170910984361,-41.314200534693406 L49.570929605902606,-41.34270685614465 L49.55592017045755,-41.37074549744185 L49.53676214093957,-41.398164514758484 L49.513559336370534,-41.42481532206405 L49.48643749475875,-41.45055349632466 L49.45554359171382,-41.475239560143976 L49.421045043973066,-41.498739737603294 L49.38312880215575,-41.52092667920485 L49.34200033766144,-41.541680151989766 L49.2978825292027,-41.56088769109089 L49.25101445500606,-41.57844520918964 L49.20165009722636,-41.5942575605742 L49.15005696559547,-41.608239056742406 L49.096514647763854,-41.620313930755124 L49.04131329419089,-41.63041674782388 L48.984752045794394,-41.63849275990765 L48.92713741288002,-41.644498202397216 L48.86878161413543,-41.64840053127941 L48.81000088469011,-41.650178599495895 L48.75111376240985,-41.64982277154096 L48.69243936171241,-41.64733497567713 L48.63429564425888,-41.64272869348573 L48.57699769589186,-41.63602888680906 L48.52085601915801,-41.62727186247998 L48.46617485066779,-41.61650507557207 L48.41325051241098,-41.60378687223645 L48.3623698059621,-41.589186173518925 L48.31380845827783,-41.5727821018709 L48.26782962750876,-41.55466355237791 L48.224682476922546,-41.534928711029515 " />
			<path d="M60.10407640085654,-41.604559773411786 L60.10407640085654,-43.51941398892446 " />
			<path d="M60.10407640085654,-29.593201512468635 L60.10407640085654,-38.12300665429783 " />
			<path d="M7.778174593052023,-3.829708431025353 L7.778174593052023,-17.755920907481183 " />
			<path d="M-7.778174593052023,-3.829708431025353 L-7.778174593052023,-17.755920907481183 " />
			<path d="M59.04341622907672,-44.04164695679155 L59.04341622907672,-50.65659788310808 " />
			<path d="M-59.04341622907672,-44.04164695679156 L-59.04341622907672,-50.65659788310808 " />
			<path d="M-6.717514421272204,-64.23465504765251 L-6.717514421272204,-76.42009096455136 " />
			<path d="M6.717514421272197,-64.23465504765251 L6.717514421272197,-76.42009096455136 " />
			<path d="M-60.10407640085654,-29.593201512468635 L-60.10407640085654,-43.51941398892446 " />
			<path d="M63.32590180780452,-33.422909943493984 L63.32590180780452,-47.349122419949815 " />
			<path d="M-63.32590180780453,-33.42290994349399 L-63.32590180780453,-47.34912241994982 " />
			<path d="M-33.569552621700474,-45.78242351634853 L-33.569552621700474,-39.34155024598771 " />
			<path d="M-39.96955262170047,-45.78242351634853 L-39.96955262170047,-39.34155024598771 " />
			<path d="M51.99036790187178,-41.25640446150038 L51.99036790187178,-40.568966018611775 " />
			<path d="M45.59036790187178,-41.256404461500395 L45.59036790187178,-37.41782384954086 " />

       </g>
    </g>
    
</svg>
