<svg xmlns="http://www.w3.org/2000/svg" viewBox="0 0 96 96" role="img" aria-label="Open Micro device outline">
  <rect x="1" y="1" width="94" height="94" rx="11" fill="#F7F7F5" stroke="#111214" stroke-width="2"/>
  <g fill="#FFFFFF" stroke="#111214" stroke-width="1.2">
    <circle cx="19.425" cy="19.425" r="9.25"/>
    <rect x="29.475" y="10.425" width="18" height="18" rx="2"/>
    <rect x="48.525" y="10.425" width="18" height="18" rx="2"/>
    <circle cx="76.575" cy="19.425" r="7.5" fill="#111214"/>
    <rect x="10.425" y="29.475" width="18" height="18" rx="2"/>
    <rect x="29.475" y="29.475" width="18" height="18" rx="2"/>
    <rect x="48.525" y="29.475" width="18" height="18" rx="2"/>
    <rect x="67.575" y="29.475" width="18" height="18" rx="2"/>
    <rect x="10.425" y="48.525" width="18" height="18" rx="2"/>
    <rect x="29.475" y="48.525" width="18" height="18" rx="2"/>
    <rect x="48.525" y="48.525" width="18" height="18" rx="2"/>
    <rect x="67.575" y="48.525" width="18" height="18" rx="2"/>
    <circle cx="19.425" cy="76.575" r="7" fill="#4D8DFF" stroke="none"/>
    <rect x="29.475" y="67.575" width="37.05" height="18" rx="2"/>
    <rect x="67.575" y="67.575" width="18" height="18" rx="2"/>
  </g>
</svg>
